<?xml version="1.0" encoding="UTF-8"?>
<svg data-bbox="19.999 11.001 527.487 145.455" xmlns="http://www.w3.org/2000/svg" viewBox="0 0 568 186" height="186" width="568" data-type="ugc">
    <g>
        <g filter="url(#47e7fcab-cf66-4147-a1d8-a51dd930bfcb)">
            <path fill="url(#266bcecd-a648-43a0-b4da-ca60bf18f4eb)" d="M127.453 12.23a1.87 1.87 0 0 1 2.827-.892c.314.22.553.532.684.892l1.785 4.878a27.99 27.99 0 0 0 16.673 16.673l4.874 1.785a1.86 1.86 0 0 1 1.23 1.756 1.87 1.87 0 0 1-1.23 1.755l-4.874 1.785a27.98 27.98 0 0 0-16.673 16.673l-1.785 4.874a1.87 1.87 0 0 1-2.827.892 1.87 1.87 0 0 1-.684-.892l-1.785-4.874a27.99 27.99 0 0 0-16.673-16.673l-4.878-1.785a1.868 1.868 0 0 1 0-3.51l4.878-1.786a27.98 27.98 0 0 0 16.673-16.673zM97.368 37.205H57.49a12.45 12.45 0 0 0-9.453 4.347l-25.04 29.214a12.45 12.45 0 0 0 .165 16.394l58.158 65.136c4.95 5.544 13.624 5.544 18.573 0l58.159-65.136a12.45 12.45 0 0 0 .165-16.394l-15.935-18.59a22.4 22.4 0 0 0-4.331 7.233l-1.78 4.859-.004.01a7.402 7.402 0 0 1-13.913 0l-.003-.01-1.78-4.86a22.42 22.42 0 0 0-13.364-13.363l-4.863-1.78-.008-.003a7.405 7.405 0 0 1-4.87-7.057m172.247 13.379c0-6.908-5.272-10.662-10.543-10.662-5.423 0-10.845 1.908-10.845 9.567v1.051c-6.025-8.71-16.418-11.219-26.209-11.219-24.251 0-39.163 17.42-39.163 40.697 0 22.375 14.159 40.997 37.958 40.997 13.104 0 23.497-3.861 27.414-13.171v3.56c0 16.519-7.682 26.58-25.004 26.58-7.504 0-12.777-1.968-16.92-3.514-1.345-.502-2.571-.96-3.716-1.291a11.6 11.6 0 0 0-3.765-.601c-5.423 0-8.435 3.905-8.435 8.109 0 3.304 1.807 6.908 5.874 9.161 6.628 3.754 18.226 6.608 28.619 6.608 28.016 0 44.735-17.721 44.735-45.052zm-21.539 29.584c0 12.464-9.037 21.775-21.69 21.775-12.803 0-21.991-9.01-21.991-21.775 0-12.464 9.188-21.475 21.991-21.475 12.653 0 21.69 9.16 21.69 21.475M446.845 39.32c15.2 0 29.507 9.608 29.507 31.528v38.584c0 7.356-5.514 11.11-10.73 11.11s-10.73-3.754-10.73-11.11v-35.13c0-13.062-6.11-16.665-12.07-16.665-7.601 0-12.965 5.705-12.965 17.115v34.681c0 7.356-5.514 11.11-10.73 11.11s-10.73-3.754-10.73-11.11V74.302c0-12.912-6.11-16.665-12.07-16.665-7.601 0-12.965 5.555-13.114 17.115v34.981c0 7.056-5.365 10.659-10.581 10.659-5.365 0-10.73-3.603-10.73-10.659V50.731c0-7.057 5.514-10.66 10.879-10.66 5.067 0 10.283 3.303 10.432 9.759 4.023-6.606 10.58-10.51 19.521-10.51 8.644 0 16.244 3.754 20.864 10.96 4.917-7.356 13.114-10.96 23.247-10.96m36.819 10.78c0-4.956 4.205-9.01 9.01-9.01h43.4c5.857 0 9.461 2.702 9.461 6.907 0 1.802-.601 3.754-1.952 5.857l-30.335 47.755h25.229c4.806 0 9.01 4.054 9.01 9.01s-4.204 9.01-9.01 9.01h-43.4c-6.007 0-9.611-2.853-9.611-6.908 0-1.802.601-3.754 1.952-5.856l30.485-47.755h-25.229c-4.955 0-9.01-4.055-9.01-9.01m-129.31 25.8c.149.597.149 1.195.149 1.792 0 6.27-4.175 9.555-10.735 9.555h-45.773c1.044 10.6 12.524 15.528 24.899 15.528 5.232 0 9.574-1.146 15.14-2.615l.009-.002 1.401-.37a9.2 9.2 0 0 1 2.684-.447c4.92 0 7.753 4.181 7.753 8.361 0 3.285-1.64 6.569-5.368 8.063-7.902 2.986-15.953 4.777-24.452 4.777-25.495 0-43.088-15.975-43.088-40.91 0-24.037 16.102-40.312 40.107-40.312 20.426 0 34.59 13.289 37.274 36.58m-56.359-2.24h36.231c-1.64-10.302-7.455-16.572-17.892-16.572-10.884 0-17.593 7.316-18.339 16.573" clip-rule="evenodd" fill-rule="evenodd"/>
        </g>
        <defs fill="none">
            <linearGradient gradientUnits="userSpaceOnUse" y2="-39.401" x2="278.123" y1="138.571" x1="346.095" id="266bcecd-a648-43a0-b4da-ca60bf18f4eb">
                <stop stop-color="#FFEE10"/>
                <stop stop-color="#FFB900" offset="1"/>
            </linearGradient>
            <filter color-interpolation-filters="sRGB" filterUnits="userSpaceOnUse" height="185.456" width="567.488" y="0" x="0" id="47e7fcab-cf66-4147-a1d8-a51dd930bfcb">
                <feFlood result="BackgroundImageFix" flood-opacity="0"/>
                <feColorMatrix result="hardAlpha" values="0 0 0 0 0 0 0 0 0 0 0 0 0 0 0 0 0 0 127 0" in="SourceAlpha"/>
                <feOffset dy="9"/>
                <feGaussianBlur stdDeviation="10"/>
                <feComposite operator="out" in2="hardAlpha"/>
                <feColorMatrix values="0 0 0 0 0 0 0 0 0 0 0 0 0 0 0 0 0 0 0.8 0"/>
                <feBlend result="effect1_dropShadow_5710_7928" in2="BackgroundImageFix"/>
                <feBlend result="shape" in2="effect1_dropShadow_5710_7928" in="SourceGraphic"/>
            </filter>
        </defs>
    </g>
</svg>
